<?xml version="1.0" encoding="UTF-8"?>
<svg id="Layer_1" data-name="Layer 1" xmlns="http://www.w3.org/2000/svg" viewBox="0 0 430.72 344.28">
  <defs>
    <style>
      .cls-1 {
        fill: #fff;
      }

      .cls-2 {
        fill: #f79226;
      }

      .cls-3 {
        fill: #4d5247;
      }

      .cls-4 {
        fill: none;
      }
    </style>
  </defs>
  <polygon class="cls-2" points="430.72 233.55 370.34 195.76 370.34 137.51 430.72 99.72 430.72 233.55"/>
  <polygon class="cls-4" points="266.4 0 266.4 0 340.58 0 340.58 56.07 266.4 56.07 266.4 0"/>
  <path class="cls-2" d="m360,75.83v175c0,18.23-14.77,33-33,33h-182.18l-79.51,60.09c-1.15.87-2.79.04-2.79-1.41l-.14-58.68h-29.38c-18.22,0-33-14.77-33-33V75.83c0-14.5,9.35-26.81,22.34-31.24-4.29-15.49-1.05-36.48.26-43.52.19-1.04,1.46-1.43,2.22-.69,24.06,23.25,53.54,30.04,64.83,31.87,41.63-14.75,106.14-26.32,180.21.19,10.21-1.5,41.08-7.89,66.09-32.06.76-.74,2.03-.35,2.22.69,1.31,7.08,4.59,28.25.19,43.76,12.63,4.63,21.64,16.76,21.64,31Z"/>
  <rect class="cls-4" x="20.19" y="0" width="74.17" height="56.07"/>
  <path class="cls-1" d="m180.12,267.49v.54c-.05-1.12-.18-2.58-.46-4.31.12-.73.26-1.51.43-2.33,0-.06.01-.12.01-.18v.16c.01,2.52.01,4.59.02,6.12Z"/>
  <path class="cls-1" d="m180.13,270.56s0-.89-.01-2.53c.08,1.62.01,2.53.01,2.53Z"/>
  <rect class="cls-4" x="48.89" y="67.15" width="131.28" height="203.41"/>
  <path class="cls-1" d="m180.1,261.21v.16s0,.01-.01.02c0-.06.01-.12.01-.18Z"/>
  <path class="cls-1" d="m180.2,268.24v2.32s-.07-.83,0-2.32Z"/>
  <rect class="cls-4" x="180.16" y="67.15" width="131.28" height="203.41"/>
  <path class="cls-1" d="m180.19,271.23c-.13-.84-.29-1.72-.49-2.66-2.41-11.28-10.16-29.9-34.74-45.94-38.31-25.01-104.67-31.26-110.52-89.78-5.85-58.53,30.33-81.66,30.33-81.66,0,0,110.52,17.01,115.32,86.84.04,4.89.08-.89.12,4.53.03-5.43.07.37.11-4.53,4.79-69.83,115.32-86.84,115.32-86.84,0,0,36.18,23.14,30.33,81.66-4.91,49.16-52.53,61.44-90.33,78.91.69.37,1.37.78,2.04,1.23,13.22,8.91,23.45,40.49,19.28,66.5h-75.94c-.13-1.33-.22-2.64-.29-3.95v-.08"/>
  <path class="cls-1" d="m247.9,270.38v-.02c.16.01,0,.02,0,.02Z"/>
  <circle class="cls-3" cx="109.66" cy="135.62" r="33.24"/>
  <circle class="cls-1" cx="117.81" cy="123.72" r="8.15"/>
  <circle class="cls-3" cx="247.64" cy="135.62" r="33.24"/>
  <circle class="cls-1" cx="255.8" cy="123.72" r="8.15"/>
  <path class="cls-2" d="m179.51,150.09l-17.49,17.49c-.99.99-1.21,2.52-.54,3.75l17.7,32.44c.35.64,1.28.63,1.61-.01l17.18-32.87c.63-1.21.42-2.69-.53-3.67l-16.63-17.12c-.36-.37-.94-.37-1.3,0Z"/>
</svg>