<?xml version="1.0" encoding="utf-8"?>
<!-- Generator: Adobe Illustrator 27.2.0, SVG Export Plug-In . SVG Version: 6.00 Build 0)  -->
<svg version="1.1" id="Layer_1" xmlns="http://www.w3.org/2000/svg" xmlns:xlink="http://www.w3.org/1999/xlink" x="0px" y="0px"
	 viewBox="0 0 500 500" style="enable-background:new 0 0 500 500;" xml:space="preserve">
<style type="text/css">
	.st0{fill:#FF7C0A;}
	.st1{fill:none;}
	.st2{fill:#FFFFFF;}
	.st3{fill:#4D5247;}
</style>
<polygon class="st0" points="465.36,311.41 404.98,273.62 404.98,215.36 465.36,177.58 "/>
<polygon class="st1" points="301.04,77.86 301.04,77.86 375.22,77.86 375.22,133.93 301.04,133.93 "/>
<path class="st0" d="M394.64,153.69v175c0,18.23-14.77,33-33,33H179.46l-79.51,60.09c-1.15,0.87-2.79,0.04-2.79-1.41l-0.14-58.68
	H67.64c-18.22,0-33-14.77-33-33v-175c0-14.5,9.35-26.81,22.34-31.24c-4.29-15.49-1.05-36.48,0.26-43.52
	c0.19-1.04,1.46-1.43,2.22-0.69c24.06,23.25,53.54,30.04,64.83,31.87c41.63-14.75,106.14-26.32,180.21,0.19
	c10.21-1.5,41.08-7.89,66.09-32.06c0.76-0.74,2.03-0.35,2.22,0.69c1.31,7.08,4.59,28.25,0.19,43.76
	C385.63,127.32,394.64,139.45,394.64,153.69z"/>
<rect x="54.83" y="77.86" class="st1" width="74.17" height="56.07"/>
<path class="st2" d="M214.76,345.35v0.54c-0.05-1.12-0.18-2.58-0.46-4.31c0.12-0.73,0.26-1.51,0.43-2.33c0-0.06,0.01-0.12,0.01-0.18
	v0.16C214.75,341.75,214.75,343.82,214.76,345.35z"/>
<path class="st2" d="M214.77,348.42c0,0,0-0.89-0.01-2.53C214.84,347.51,214.77,348.42,214.77,348.42z"/>
<rect x="83.53" y="145.01" class="st1" width="131.28" height="203.41"/>
<path class="st2" d="M214.74,339.07v0.16c0,0.01,0,0.01-0.01,0.02C214.73,339.19,214.74,339.13,214.74,339.07z"/>
<path class="st2" d="M214.84,346.1c0,1.51,0,2.32,0,2.32S214.77,347.59,214.84,346.1z"/>
<rect x="214.8" y="145.01" class="st1" width="131.28" height="203.41"/>
<path class="st2" d="M214.83,349.08c-0.13-0.84-0.29-1.72-0.49-2.66c-2.41-11.28-10.16-29.9-34.74-45.94
	c-38.31-25.01-104.67-31.26-110.52-89.78c-5.85-58.53,30.33-81.66,30.33-81.66s110.52,17.01,115.32,86.84
	c0.04,4.89,0.08-0.89,0.12,4.53c0.03-5.43,0.07,0.37,0.11-4.53c4.79-69.83,115.32-86.84,115.32-86.84s36.18,23.14,30.33,81.66
	c-4.91,49.16-52.53,61.44-90.33,78.91c0.69,0.37,1.37,0.78,2.04,1.23c13.22,8.91,23.45,40.49,19.28,66.5h-75.94
	c-0.13-1.33-0.22-2.64-0.29-3.95v-0.08"/>
<path class="st2" d="M282.54,348.24c0-0.01,0-0.01,0-0.02C282.7,348.23,282.54,348.24,282.54,348.24z"/>
<circle class="st3" cx="144.3" cy="213.48" r="33.24"/>
<circle class="st2" cx="152.45" cy="201.58" r="8.15"/>
<circle class="st3" cx="282.28" cy="213.48" r="33.24"/>
<circle class="st2" cx="290.44" cy="201.58" r="8.15"/>
<path class="st0" d="M214.15,227.95l-17.49,17.49c-0.99,0.99-1.21,2.52-0.54,3.75l17.7,32.44c0.35,0.64,1.28,0.63,1.61-0.01
	l17.18-32.87c0.63-1.21,0.42-2.69-0.53-3.67l-16.63-17.12C215.09,227.59,214.51,227.58,214.15,227.95z"/>
</svg>
